<?xml version="1.0" standalone="no"?><!DOCTYPE svg PUBLIC "-//W3C//DTD SVG 1.1//EN" "http://www.w3.org/Graphics/SVG/1.1/DTD/svg11.dtd"><svg t="1747396196291" class="icon" viewBox="0 0 1024 1024" version="1.1" xmlns="http://www.w3.org/2000/svg" p-id="4459" xmlns:xlink="http://www.w3.org/1999/xlink" width="200" height="200"><path d="M910.02 462.14c27.48-0.12 49.85 22.05 49.97 49.53 0.12 26.2-20.11 48-46.24 49.85l-3.73 0.12H113.98c-27.48 0.12-49.86-22.05-49.98-49.53-0.12-26.2 20.11-48 46.24-49.85l3.73-0.12h796.05z" p-id="4460"></path><path d="M512 64.11c26.04-0.01 47.68 20.06 49.63 46.02l0.12 3.73v796.05c0.12 27.48-22.05 49.85-49.53 49.98-26.2 0.12-48-20.11-49.85-46.24l-0.12-3.73V113.86c0-27.47 22.27-49.75 49.75-49.75z" p-id="4461"></path></svg>